# Blender 3.1.0
# www.blender.org
mtllib test2.mtl
o Cube
v 1.000000 1.000000 -1.000000
v 1.000000 -1.000000 -1.000000
v 1.000000 1.000000 1.000000
v 1.000000 -1.000000 1.000000
v -1.000000 1.000000 -1.000000
v -1.000000 -1.000000 -1.000000
v -1.000000 1.000000 1.000000
v -1.000000 -1.000000 1.000000
v 0.757128 1.000000 0.757128
v -0.757128 1.000000 0.757128
v 0.757128 1.000000 -0.757128
v -0.757128 1.000000 -0.757128
v 0.757128 1.000000 0.757128
v -0.757128 1.000000 0.757128
v 0.757128 1.000000 -0.757128
v -0.757128 1.000000 -0.757128
v 0.757128 -0.710576 0.757128
v -0.757128 -0.710576 0.757128
v 0.757128 -0.710576 -0.757128
v -0.757128 -0.710576 -0.757128
v 0.122236 -0.710576 0.122236
v -0.122236 -0.710576 0.122236
v 0.122236 -0.710576 -0.122236
v -0.122236 -0.710576 -0.122236
v 0.122236 2.098864 0.122236
v -0.122236 2.098864 0.122236
v 0.122236 2.098864 -0.122236
v -0.122236 2.098864 -0.122236
vn -0.0000 1.0000 -0.0000
vn -0.0000 -0.0000 1.0000
vn -1.0000 -0.0000 -0.0000
vn -0.0000 -1.0000 -0.0000
vn 1.0000 -0.0000 -0.0000
vn -0.0000 -0.0000 -1.0000
vt 0.625000 0.500000
vt 0.375000 0.500000
vt 0.625000 0.750000
vt 0.375000 0.750000
vt 0.625000 0.250000
vt 0.125000 0.500000
vt 0.375000 0.250000
vt 0.625000 1.000000
vt 0.625000 0.000000
vt 0.375000 0.000000
vt 0.375000 1.000000
vt 0.125000 0.750000
vt 0.625000 0.750000
vt 0.625000 0.000000
vt 0.625000 1.000000
vt 0.625000 0.500000
vt 0.625000 0.250000
vt 0.625000 0.750000
vt 0.625000 1.000000
vt 0.625000 0.000000
vt 0.625000 0.500000
vt 0.625000 0.250000
vt 0.625000 0.750000
vt 0.625000 1.000000
vt 0.625000 0.000000
vt 0.625000 0.500000
vt 0.625000 0.250000
vt 0.625000 0.750000
vt 0.625000 1.000000
vt 0.625000 0.000000
vt 0.625000 0.500000
vt 0.625000 0.250000
vt 0.625000 0.750000
vt 0.875000 0.750000
vt 0.625000 0.000000
vt 0.625000 1.000000
vt 0.625000 0.500000
vt 0.875000 0.500000
vt 0.625000 0.250000
s 0
usemtl Material
f 5/5/1 11/16/1 1/1/1
f 3/3/2 8/11/2 4/4/2
f 7/9/3 6/7/3 8/10/3
f 2/2/4 8/12/4 6/6/4
f 1/1/5 4/4/5 2/2/5
f 5/5/6 2/2/6 6/7/6
f 12/17/1 14/20/1 16/22/1
f 3/3/1 10/15/1 7/8/1
f 7/9/1 12/17/1 5/5/1
f 1/1/1 9/13/1 3/3/1
f 16/22/2 19/26/2 15/21/2
f 10/15/1 13/18/1 14/19/1
f 11/16/1 16/22/1 15/21/1
f 9/13/1 15/21/1 13/18/1
f 17/23/1 22/29/1 18/24/1
f 15/21/3 17/23/3 13/18/3
f 14/20/5 20/27/5 16/22/5
f 13/18/6 18/24/6 14/19/6
f 24/32/6 27/37/6 23/31/6
f 20/27/1 23/31/1 19/26/1
f 19/26/1 21/28/1 17/23/1
f 18/25/1 24/32/1 20/27/1
f 28/38/1 25/33/1 27/37/1
f 23/31/5 25/33/5 21/28/5
f 22/30/3 28/39/3 24/32/3
f 21/28/2 26/36/2 22/29/2
f 5/5/1 12/17/1 11/16/1
f 3/3/2 7/8/2 8/11/2
f 7/9/3 5/5/3 6/7/3
f 2/2/4 4/4/4 8/12/4
f 1/1/5 3/3/5 4/4/5
f 5/5/6 1/1/6 2/2/6
f 12/17/1 10/14/1 14/20/1
f 3/3/1 9/13/1 10/15/1
f 7/9/1 10/14/1 12/17/1
f 1/1/1 11/16/1 9/13/1
f 16/22/2 20/27/2 19/26/2
f 10/15/1 9/13/1 13/18/1
f 11/16/1 12/17/1 16/22/1
f 9/13/1 11/16/1 15/21/1
f 17/23/1 21/28/1 22/29/1
f 15/21/3 19/26/3 17/23/3
f 14/20/5 18/25/5 20/27/5
f 13/18/6 17/23/6 18/24/6
f 24/32/6 28/39/6 27/37/6
f 20/27/1 24/32/1 23/31/1
f 19/26/1 23/31/1 21/28/1
f 18/25/1 22/30/1 24/32/1
f 28/38/1 26/34/1 25/33/1
f 23/31/5 27/37/5 25/33/5
f 22/30/3 26/35/3 28/39/3
f 21/28/2 25/33/2 26/36/2
