# Blender 3.1.0
# www.blender.org
mtllib test.mtl
o Cube.001
v -1.000000 1.000000 -1.000000
v 0.757128 1.000000 -0.757128
v 1.000000 1.000000 -1.000000
v 1.000000 1.000000 1.000000
v -1.000000 -1.000000 1.000000
v 1.000000 -1.000000 1.000000
v -1.000000 1.000000 1.000000
v -1.000000 -1.000000 -1.000000
v 1.000000 -1.000000 -1.000000
v -0.757128 1.000000 -0.757128
v -0.757128 1.000000 0.757128
v -0.757128 1.000000 -0.757128
v -0.757128 1.000000 0.757128
v 0.757128 1.000000 0.757128
v 0.757128 -0.710576 -0.757128
v 0.757128 1.000000 -0.757128
v 0.757128 1.000000 0.757128
v -0.757128 -0.710576 -0.757128
v 0.757128 -0.710576 0.757128
v -0.757128 -0.710576 0.757128
vn -0.0000 1.0000 -0.0000
vn -0.0000 -0.0000 1.0000
vn -1.0000 -0.0000 -0.0000
vn -0.0000 -1.0000 -0.0000
vn 1.0000 -0.0000 -0.0000
vn -0.0000 -0.0000 -1.0000
vn -0.0001 1.0000 -0.0000
vn -0.0000 -0.0000 -0.0000
vt 0.625000 0.250000
vt 0.625000 0.500000
vt 0.625000 0.500000
vt 0.625000 0.750000
vt 0.375000 0.000000
vt 0.375000 1.000000
vt 0.125000 0.750000
vt 0.375000 0.750000
vt 0.625000 1.000000
vt 0.625000 0.000000
vt 0.125000 0.500000
vt 0.375000 0.250000
vt 0.375000 0.500000
vt 0.625000 0.250000
vt 0.625000 1.000000
vt 0.625000 0.000000
vt 0.625000 0.250000
vt 0.625000 0.000000
vt 0.625000 1.000000
vt 0.625000 0.750000
vt 0.629922 0.247770
vt 0.625000 0.500000
vt 0.754191 0.490157
vt 0.625000 0.500000
vt 0.754191 0.490157
vt 0.625000 0.750000
vt 0.879922 0.247770
vt 0.625000 0.250000
vt 0.629922 0.497770
vt 0.754191 0.740157
vt 0.625000 0.750000
vt 0.879922 0.497770
vt 0.625000 0.000000
vt 0.625000 1.000000
s 1
usemtl Material.001
f 1/1/1 2/2/1 3/3/1
f 4/4/2 5/6/2 6/8/2
f 7/10/3 8/12/3 5/5/3
f 9/13/4 5/7/4 8/11/4
f 3/3/5 6/8/5 9/13/5
f 1/1/6 9/13/6 8/12/6
f 10/14/7 11/16/8 12/17/8
f 4/4/1 13/19/1 7/9/1
f 7/10/1 10/14/7 1/1/1
f 3/3/1 14/20/1 4/4/1
f 12/17/2 15/22/2 16/24/2
f 13/19/1 17/26/8 11/15/8
f 2/2/1 12/17/8 16/24/8
f 14/20/1 16/24/8 17/26/8
f 18/27/1 19/29/1 15/21/1
f 16/24/3 19/31/3 17/26/3
f 11/16/5 18/28/5 12/17/5
f 17/26/6 20/34/6 11/15/6
f 1/1/1 10/14/7 2/2/1
f 4/4/2 7/9/2 5/6/2
f 7/10/3 1/1/3 8/12/3
f 9/13/4 6/8/4 5/7/4
f 3/3/5 4/4/5 6/8/5
f 1/1/6 3/3/6 9/13/6
f 10/14/7 13/18/1 11/16/8
f 4/4/1 14/20/1 13/19/1
f 7/10/1 13/18/1 10/14/7
f 3/3/1 2/2/1 14/20/1
f 12/17/2 18/28/2 15/22/2
f 13/19/1 14/20/1 17/26/8
f 2/2/1 10/14/7 12/17/8
f 14/20/1 2/2/1 16/24/8
f 18/27/1 20/32/1 19/29/1
f 16/25/3 15/23/3 19/30/3
f 11/16/5 20/33/5 18/28/5
f 17/26/6 19/31/6 20/34/6
